<svg xmlns="http://www.w3.org/2000/svg" width="1200" height="90" viewBox="0 0 1200 90" role="img" aria-label="Configuration">
  <title>Configuration</title>
  <defs>
    <linearGradient id="bg" x1="0" y1="0" x2="1" y2="1">
      <stop offset="0" stop-color="#050816"/>
      <stop offset="0.55" stop-color="#0b1030"/>
      <stop offset="1" stop-color="#1a0b3a"/>
    </linearGradient>
    <linearGradient id="neon" x1="0" y1="0" x2="1" y2="0">
      <stop offset="0" stop-color="#22d3ee">
        <animate attributeName="stop-color" values="#22d3ee;#a78bfa;#22d3ee" dur="9s" repeatCount="indefinite"/>
      </stop>
      <stop offset="0.5" stop-color="#8b5cf6"/>
      <stop offset="1" stop-color="#f472b6">
        <animate attributeName="stop-color" values="#f472b6;#22d3ee;#f472b6" dur="9s" repeatCount="indefinite"/>
      </stop>
    </linearGradient>
    <radialGradient id="glowCyan" cx="0.5" cy="0.5" r="0.5">
      <stop offset="0" stop-color="#22d3ee" stop-opacity="0.55"/>
      <stop offset="1" stop-color="#22d3ee" stop-opacity="0"/>
    </radialGradient>
    <radialGradient id="glowPink" cx="0.5" cy="0.5" r="0.5">
      <stop offset="0" stop-color="#f472b6" stop-opacity="0.5"/>
      <stop offset="1" stop-color="#f472b6" stop-opacity="0"/>
    </radialGradient>
    <linearGradient id="sweep" x1="0" y1="0" x2="1" y2="0">
      <stop offset="0" stop-color="#ffffff" stop-opacity="0"/>
      <stop offset="0.5" stop-color="#ffffff" stop-opacity="0.16"/>
      <stop offset="1" stop-color="#ffffff" stop-opacity="0"/>
    </linearGradient>
    <filter id="glow" x="-30%" y="-30%" width="160%" height="160%">
      <feGaussianBlur stdDeviation="6" result="b"/>
      <feMerge><feMergeNode in="b"/><feMergeNode in="SourceGraphic"/></feMerge>
    </filter>
    <filter id="softGlow" x="-30%" y="-30%" width="160%" height="160%">
      <feGaussianBlur stdDeviation="3" result="b"/>
      <feMerge><feMergeNode in="b"/><feMergeNode in="SourceGraphic"/></feMerge>
    </filter>
  </defs>

  <rect x="1" y="1" width="1198" height="88" rx="22" fill="url(#bg)" stroke="url(#neon)" stroke-width="1.5"/>
  <ellipse cx="90" cy="45" rx="160" ry="70" fill="url(#glowCyan)" opacity="0.7"/>
  <ellipse cx="1120" cy="45" rx="180" ry="70" fill="url(#glowPink)" opacity="0.5"/>
  <g transform="translate(34,23)" filter="url(#softGlow)">
    <circle cx="22" cy="22" r="8" fill="none" stroke="url(#neon)" stroke-width="4"/>
    <circle cx="22" cy="22" r="3" fill="url(#neon)"/>
    <g stroke="url(#neon)" stroke-width="4" stroke-linecap="round">
      <line x1="22" y1="2" x2="22" y2="10"/>
      <line x1="22" y1="34" x2="22" y2="42"/>
      <line x1="2" y1="22" x2="10" y2="22"/>
      <line x1="34" y1="22" x2="42" y2="22"/>
      <line x1="8" y1="8" x2="13" y2="13"/>
      <line x1="31" y1="31" x2="36" y2="36"/>
      <line x1="8" y1="36" x2="13" y2="31"/>
      <line x1="31" y1="13" x2="36" y2="8"/>
    </g>
  </g>
  <text x="96" y="58" font-family="Segoe UI, Inter, Helvetica Neue, Helvetica, Arial, sans-serif" font-size="34" font-weight="700" letter-spacing="0.5" fill="url(#neon)" filter="url(#softGlow)">Configuration</text>
  <rect x="0" y="0" width="220" height="90" fill="url(#sweep)">
    <animate attributeName="x" values="-220;1200" dur="6s" repeatCount="indefinite"/>
  </rect>
</svg>
